<svg width="33" height="29" viewBox="0 0 33 29" fill="none" xmlns="http://www.w3.org/2000/svg">
<path d="M28.9818 4.25438C27.5531 2.82497 25.5621 2 23.5411 2C21.52 2 19.529 2.82497 18.1003 4.25438L16.6177 5.73696L15.1352 4.25438C13.6922 2.81141 11.7351 2.00075 9.6944 2.00075C7.65372 2.00075 5.69662 2.81141 4.25364 4.25438C2.81066 5.69736 2 7.65446 2 9.69514C2 11.7358 2.81066 13.6929 4.25364 15.1359L16.6177 27.5L28.9818 15.1359C30.4112 13.7072 31.2362 11.7162 31.2362 9.69514C31.2362 7.67413 30.4112 5.68313 28.9818 4.25438Z" stroke="#ECECF1" stroke-width="2.5" stroke-linecap="round" stroke-linejoin="round"/>
</svg>
