<svg width="164" height="42" viewBox="0 0 164 42" fill="none" xmlns="http://www.w3.org/2000/svg">
<path d="M6 5H156V37H6V5Z" fill="#94B1FF" fill-opacity="0.2"/>
<path fill-rule="evenodd" clip-rule="evenodd" d="M164 0H0V42H164V0ZM14.64 30.55C15.14 31.03 15.83 31.27 16.71 31.27C18.53 31.27 19.44 30.32 19.44 28.42V22.6H26.13C26.83 22.6 27.36 22.42 27.72 22.06C28.1 21.7 28.29 21.17 28.29 20.47C28.29 19.79 28.1 19.27 27.72 18.91C27.36 18.55 26.83 18.37 26.13 18.37H19.44V14.11H26.79C27.51 14.11 28.05 13.93 28.41 13.57C28.77 13.19 28.95 12.65 28.95 11.95C28.95 11.27 28.77 10.75 28.41 10.39C28.05 10.03 27.51 9.85 26.79 9.85H16.8C15.86 9.85 15.14 10.1 14.64 10.6C14.16 11.08 13.92 11.78 13.92 12.7V28.42C13.92 29.34 14.16 30.05 14.64 30.55ZM40.597 30.55C41.077 31.03 41.757 31.27 42.637 31.27C43.557 31.27 44.247 31.03 44.707 30.55C45.167 30.05 45.397 29.36 45.397 28.48V23.11H47.047C47.527 23.11 47.947 23.2 48.307 23.38C48.687 23.54 48.997 23.84 49.237 24.28L51.967 29.29C52.347 29.97 52.777 30.47 53.257 30.79C53.757 31.11 54.397 31.27 55.177 31.27C55.957 31.27 56.547 31.1 56.947 30.76C57.367 30.4 57.587 29.95 57.607 29.41C57.627 28.85 57.477 28.28 57.157 27.7L55.657 25C55.217 24.16 54.667 23.54 54.007 23.14C53.6953 22.9416 53.3613 22.7901 53.005 22.6854C53.405 22.573 53.779 22.4345 54.127 22.27C55.247 21.73 56.097 20.97 56.677 19.99C57.277 18.99 57.577 17.82 57.577 16.48C57.577 14.4 56.917 12.78 55.597 11.62C54.297 10.44 52.447 9.85 50.047 9.85H42.667C41.787 9.85 41.097 10.09 40.597 10.57C40.117 11.05 39.877 11.74 39.877 12.64V28.48C39.877 29.36 40.117 30.05 40.597 30.55ZM49.057 19.21H45.397V14.08H49.057C50.117 14.08 50.927 14.3 51.487 14.74C52.047 15.16 52.327 15.79 52.327 16.63C52.327 17.51 52.047 18.16 51.487 18.58C50.927 19 50.117 19.21 49.057 19.21ZM70.3627 30.28C70.8627 30.76 71.5827 31 72.5227 31H82.6927C83.4127 31 83.9527 30.82 84.3127 30.46C84.6727 30.1 84.8527 29.57 84.8527 28.87C84.8527 28.19 84.6727 27.67 84.3127 27.31C83.9527 26.93 83.4127 26.74 82.6927 26.74H74.9227V22.39H82.0327C82.7327 22.39 83.2627 22.21 83.6227 21.85C84.0027 21.49 84.1927 20.96 84.1927 20.26C84.1927 19.56 84.0027 19.03 83.6227 18.67C83.2627 18.31 82.7327 18.13 82.0327 18.13H74.9227V14.11H82.6927C83.4127 14.11 83.9527 13.93 84.3127 13.57C84.6727 13.19 84.8527 12.65 84.8527 11.95C84.8527 11.27 84.6727 10.75 84.3127 10.39C83.9527 10.03 83.4127 9.85 82.6927 9.85H72.5227C71.5827 9.85 70.8627 10.1 70.3627 10.6C69.8827 11.08 69.6427 11.78 69.6427 12.7V28.15C69.6427 29.07 69.8827 29.78 70.3627 30.28ZM97.3144 30.61C97.7544 31.05 98.3944 31.27 99.2344 31.27C100.074 31.27 100.704 31.05 101.124 30.61C101.564 30.17 101.784 29.52 101.784 28.66V18.852L110.454 29.71C110.894 30.25 111.304 30.65 111.684 30.91C112.084 31.15 112.624 31.27 113.304 31.27C113.984 31.27 114.524 31.05 114.924 30.61C115.324 30.15 115.524 29.54 115.524 28.78V12.16C115.524 11.32 115.304 10.68 114.864 10.24C114.444 9.8 113.814 9.58 112.974 9.58C112.134 9.58 111.494 9.8 111.054 10.24C110.634 10.68 110.424 11.32 110.424 12.16V21.9707L101.754 11.14C101.314 10.58 100.914 10.18 100.554 9.94C100.194 9.7 99.6944 9.58 99.0544 9.58C98.3344 9.58 97.7544 9.82 97.3144 10.3C96.8744 10.76 96.6544 11.43 96.6544 12.31V28.66C96.6544 29.52 96.8744 30.17 97.3144 30.61ZM133.313 31.15C134.193 31.27 135.033 31.33 135.833 31.33C137.213 31.33 138.453 31.17 139.553 30.85C140.653 30.53 141.593 30.08 142.373 29.5C143.153 28.9 143.753 28.18 144.173 27.34C144.593 26.5 144.803 25.56 144.803 24.52C144.803 22.98 144.323 21.73 143.363 20.77C142.403 19.81 140.953 19.12 139.013 18.7L135.533 17.95C134.593 17.75 133.943 17.51 133.583 17.23C133.243 16.93 133.073 16.57 133.073 16.15C133.073 15.73 133.203 15.36 133.463 15.04C133.743 14.72 134.143 14.48 134.663 14.32C135.183 14.14 135.813 14.05 136.553 14.05C137.233 14.05 137.933 14.12 138.653 14.26C139.393 14.38 140.053 14.57 140.633 14.83C141.253 15.09 141.783 15.17 142.223 15.07C142.683 14.95 143.043 14.72 143.303 14.38C143.583 14.04 143.743 13.65 143.783 13.21C143.823 12.75 143.743 12.31 143.543 11.89C143.343 11.47 143.013 11.14 142.553 10.9C141.773 10.44 140.843 10.1 139.763 9.88C138.703 9.64 137.653 9.52 136.613 9.52C135.273 9.52 134.053 9.69 132.953 10.03C131.873 10.35 130.933 10.81 130.133 11.41C129.353 12.01 128.743 12.74 128.303 13.6C127.883 14.44 127.673 15.38 127.673 16.42C127.673 18 128.143 19.29 129.083 20.29C130.023 21.29 131.453 21.99 133.373 22.39L136.883 23.14C137.823 23.34 138.473 23.58 138.833 23.86C139.213 24.14 139.403 24.51 139.403 24.97C139.403 25.49 139.133 25.93 138.593 26.29C138.073 26.63 137.153 26.8 135.833 26.8C134.993 26.8 134.093 26.7 133.133 26.5C132.173 26.3 131.313 26.02 130.553 25.66C129.973 25.4 129.453 25.34 128.993 25.48C128.533 25.6 128.163 25.85 127.883 26.23C127.603 26.59 127.433 27.01 127.373 27.49C127.313 27.97 127.393 28.43 127.613 28.87C127.833 29.29 128.213 29.63 128.753 29.89C129.373 30.19 130.073 30.45 130.853 30.67C131.633 30.89 132.453 31.05 133.313 31.15Z" fill="#24242B"/>
</svg>
