<svg width="29" height="29" viewBox="0 0 29 29" fill="none" xmlns="http://www.w3.org/2000/svg">
<path d="M10.5 27.5V16.676C10.5 15.4804 11.4514 14.5112 12.625 14.5112H16.875C18.0486 14.5112 19 15.4804 19 16.676V27.5M27.5 24.9022V11.7416C27.5 11.0352 27.1617 10.3732 26.5936 9.96815L15.9686 2.39133C15.2369 1.86956 14.2631 1.86956 13.5314 2.39133L2.90639 9.96815C2.33832 10.3732 2 11.0352 2 11.7416V24.9022C2 25.5912 2.29851 26.252 2.82986 26.7391C3.36122 27.2263 4.08189 27.5 4.83333 27.5H24.6667C25.4181 27.5 26.1388 27.2263 26.6701 26.7391C27.2015 26.252 27.5 25.5912 27.5 24.9022Z" stroke="#ECECF1" stroke-width="2.5" stroke-linecap="round" stroke-linejoin="round"/>
</svg>
