<svg width="164" height="42" viewBox="0 0 164 42" fill="none" xmlns="http://www.w3.org/2000/svg">
<path d="M6 5H156V37H6V5Z" fill="#94B1FF" fill-opacity="0.2"/>
<path fill-rule="evenodd" clip-rule="evenodd" d="M164 0H0V42H164V0ZM19.62 30.55C20.1 31.03 20.78 31.27 21.66 31.27C22.58 31.27 23.27 31.03 23.73 30.55C24.19 30.05 24.42 29.36 24.42 28.48V14.35H29.13C29.87 14.35 30.43 14.16 30.81 13.78C31.21 13.38 31.41 12.82 31.41 12.1C31.41 11.36 31.21 10.8 30.81 10.42C30.43 10.04 29.87 9.85 29.13 9.85H14.19C13.45 9.85 12.88 10.04 12.48 10.42C12.1 10.8 11.91 11.36 11.91 12.1C11.91 12.82 12.1 13.38 12.48 13.78C12.88 14.16 13.45 14.35 14.19 14.35H18.9V28.48C18.9 29.36 19.14 30.05 19.62 30.55ZM41.2406 30.85C41.6606 31.13 42.1806 31.27 42.8006 31.27C43.5806 31.27 44.1606 31.09 44.5406 30.73C44.9206 30.37 45.2906 29.79 45.6506 28.99L46.6201 26.71H56.0512L57.0206 28.99C57.3606 29.79 57.7406 30.37 58.1606 30.73C58.6006 31.09 59.2206 31.27 60.0206 31.27C60.6206 31.27 61.1206 31.13 61.5206 30.85C61.9406 30.57 62.1906 30.17 62.2706 29.65C62.3706 29.13 62.2606 28.55 61.9406 27.91L54.4706 11.83C54.0906 11.05 53.6406 10.48 53.1206 10.12C52.6206 9.76 52.0306 9.58 51.3506 9.58C50.6706 9.58 50.0606 9.76 49.5206 10.12C49.0006 10.48 48.5606 11.05 48.2006 11.83L40.7306 27.91C40.4506 28.55 40.3606 29.13 40.4606 29.65C40.5606 30.15 40.8206 30.55 41.2406 30.85ZM48.4137 22.48L51.2906 15.61H51.3506L54.2524 22.48H48.4137ZM78.6155 31.15C79.4955 31.27 80.3355 31.33 81.1355 31.33C82.5155 31.33 83.7555 31.17 84.8555 30.85C85.9555 30.53 86.8955 30.08 87.6755 29.5C88.4555 28.9 89.0555 28.18 89.4755 27.34C89.8955 26.5 90.1055 25.56 90.1055 24.52C90.1055 22.98 89.6255 21.73 88.6655 20.77C87.7055 19.81 86.2555 19.12 84.3155 18.7L80.8355 17.95C79.8955 17.75 79.2455 17.51 78.8855 17.23C78.5455 16.93 78.3755 16.57 78.3755 16.15C78.3755 15.73 78.5055 15.36 78.7655 15.04C79.0455 14.72 79.4455 14.48 79.9655 14.32C80.4855 14.14 81.1155 14.05 81.8555 14.05C82.5355 14.05 83.2355 14.12 83.9555 14.26C84.6955 14.38 85.3555 14.57 85.9355 14.83C86.5555 15.09 87.0855 15.17 87.5255 15.07C87.9855 14.95 88.3455 14.72 88.6055 14.38C88.8855 14.04 89.0455 13.65 89.0855 13.21C89.1255 12.75 89.0455 12.31 88.8455 11.89C88.6455 11.47 88.3155 11.14 87.8555 10.9C87.0755 10.44 86.1455 10.1 85.0655 9.88C84.0055 9.64 82.9555 9.52 81.9155 9.52C80.5755 9.52 79.3555 9.69 78.2555 10.03C77.1755 10.35 76.2355 10.81 75.4355 11.41C74.6555 12.01 74.0455 12.74 73.6055 13.6C73.1855 14.44 72.9755 15.38 72.9755 16.42C72.9755 18 73.4455 19.29 74.3855 20.29C75.3255 21.29 76.7555 21.99 78.6755 22.39L82.1855 23.14C83.1255 23.34 83.7755 23.58 84.1355 23.86C84.5155 24.14 84.7055 24.51 84.7055 24.97C84.7055 25.49 84.4355 25.93 83.8955 26.29C83.3755 26.63 82.4555 26.8 81.1355 26.8C80.2955 26.8 79.3955 26.7 78.4355 26.5C77.4755 26.3 76.6155 26.02 75.8555 25.66C75.2755 25.4 74.7555 25.34 74.2955 25.48C73.8355 25.6 73.4655 25.85 73.1855 26.23C72.9055 26.59 72.7355 27.01 72.6755 27.49C72.6155 27.97 72.6955 28.43 72.9155 28.87C73.1355 29.29 73.5155 29.63 74.0555 29.89C74.6755 30.19 75.3755 30.45 76.1555 30.67C76.9355 30.89 77.7555 31.05 78.6155 31.15ZM102.12 30.55C102.6 31.03 103.28 31.27 104.16 31.27C105.08 31.27 105.77 31.03 106.23 30.55C106.69 30.05 106.92 29.36 106.92 28.48V21.46H106.98L114.3 29.65C114.78 30.19 115.22 30.6 115.62 30.88C116.04 31.14 116.59 31.27 117.27 31.27C118.07 31.27 118.67 31.07 119.07 30.67C119.49 30.27 119.7 29.77 119.7 29.17C119.7 28.55 119.44 27.95 118.92 27.37L112.327 19.9199L118.56 13.3C119 12.82 119.23 12.3 119.25 11.74C119.29 11.16 119.12 10.66 118.74 10.24C118.38 9.8 117.78 9.58 116.94 9.58C116.4 9.58 115.91 9.7 115.47 9.94C115.05 10.16 114.65 10.47 114.27 10.87L106.98 18.91H106.92V12.37C106.92 11.45 106.68 10.76 106.2 10.3C105.74 9.82 105.06 9.58 104.16 9.58C103.28 9.58 102.6 9.82 102.12 10.3C101.64 10.76 101.4 11.45 101.4 12.37V28.48C101.4 29.36 101.64 30.05 102.12 30.55ZM136.682 31.15C137.562 31.27 138.402 31.33 139.202 31.33C140.582 31.33 141.822 31.17 142.922 30.85C144.022 30.53 144.962 30.08 145.742 29.5C146.522 28.9 147.122 28.18 147.542 27.34C147.962 26.5 148.172 25.56 148.172 24.52C148.172 22.98 147.692 21.73 146.732 20.77C145.772 19.81 144.322 19.12 142.382 18.7L138.902 17.95C137.962 17.75 137.312 17.51 136.952 17.23C136.612 16.93 136.442 16.57 136.442 16.15C136.442 15.73 136.572 15.36 136.832 15.04C137.112 14.72 137.512 14.48 138.032 14.32C138.552 14.14 139.182 14.05 139.922 14.05C140.602 14.05 141.302 14.12 142.022 14.26C142.762 14.38 143.422 14.57 144.002 14.83C144.622 15.09 145.152 15.17 145.592 15.07C146.052 14.95 146.412 14.72 146.672 14.38C146.952 14.04 147.112 13.65 147.152 13.21C147.192 12.75 147.112 12.31 146.912 11.89C146.712 11.47 146.382 11.14 145.922 10.9C145.142 10.44 144.212 10.1 143.132 9.88C142.072 9.64 141.022 9.52 139.982 9.52C138.642 9.52 137.422 9.69 136.322 10.03C135.242 10.35 134.302 10.81 133.502 11.41C132.722 12.01 132.112 12.74 131.672 13.6C131.252 14.44 131.042 15.38 131.042 16.42C131.042 18 131.512 19.29 132.452 20.29C133.392 21.29 134.822 21.99 136.742 22.39L140.252 23.14C141.192 23.34 141.842 23.58 142.202 23.86C142.582 24.14 142.772 24.51 142.772 24.97C142.772 25.49 142.502 25.93 141.962 26.29C141.442 26.63 140.522 26.8 139.202 26.8C138.362 26.8 137.462 26.7 136.502 26.5C135.542 26.3 134.682 26.02 133.922 25.66C133.342 25.4 132.822 25.34 132.362 25.48C131.902 25.6 131.532 25.85 131.252 26.23C130.972 26.59 130.802 27.01 130.742 27.49C130.682 27.97 130.762 28.43 130.982 28.87C131.202 29.29 131.582 29.63 132.122 29.89C132.742 30.19 133.442 30.45 134.222 30.67C135.002 30.89 135.822 31.05 136.682 31.15Z" fill="#24242B"/>
</svg>
