<svg width="29" height="29" viewBox="0 0 29 29" fill="none" xmlns="http://www.w3.org/2000/svg">
<path d="M12 4C12 2.89543 11.1046 2 10 2H4C2.89543 2 2 2.89543 2 4V10C2 11.1046 2.89543 12 4 12H10C11.1046 12 12 11.1046 12 10V4Z" stroke="#ECECF1" stroke-width="2.5" stroke-linecap="round" stroke-linejoin="round"/>
<path d="M27.5 4C27.5 2.89543 26.6046 2 25.5 2H19.5C18.3954 2 17.5 2.89543 17.5 4V10C17.5 11.1046 18.3954 12 19.5 12H25.5C26.6046 12 27.5 11.1046 27.5 10V4Z" stroke="#ECECF1" stroke-width="2.5" stroke-linecap="round" stroke-linejoin="round"/>
<path d="M27.5 19.5C27.5 18.3954 26.6046 17.5 25.5 17.5H19.5C18.3954 17.5 17.5 18.3954 17.5 19.5V25.5C17.5 26.6046 18.3954 27.5 19.5 27.5H25.5C26.6046 27.5 27.5 26.6046 27.5 25.5V19.5Z" stroke="#ECECF1" stroke-width="2.5" stroke-linecap="round" stroke-linejoin="round"/>
<path d="M12 19.5C12 18.3954 11.1046 17.5 10 17.5H4C2.89543 17.5 2 18.3954 2 19.5V25.5C2 26.6046 2.89543 27.5 4 27.5H10C11.1046 27.5 12 26.6046 12 25.5V19.5Z" stroke="#ECECF1" stroke-width="2.5" stroke-linecap="round" stroke-linejoin="round"/>
</svg>
