<svg width="164" height="42" viewBox="0 0 164 42" fill="none" xmlns="http://www.w3.org/2000/svg">
<path d="M6 5H156V37H6V5Z" fill="#94B1FF" fill-opacity="0.2"/>
<path fill-rule="evenodd" clip-rule="evenodd" d="M164 0H0V42H164V0ZM21.3 30.79C21.78 31.11 22.4 31.27 23.16 31.27C23.92 31.27 24.53 31.11 24.99 30.79C25.45 30.47 25.83 29.96 26.13 29.26L33.42 13.24C33.74 12.54 33.84 11.91 33.72 11.35C33.62 10.79 33.36 10.36 32.94 10.06C32.52 9.74 32 9.58 31.38 9.58C30.62 9.58 30.03 9.76 29.61 10.12C29.19 10.46 28.83 10.98 28.53 11.68L23.2491 23.9244L17.97 11.71C17.67 11.01 17.31 10.48 16.89 10.12C16.49 9.76 15.88 9.58 15.06 9.58C14.4 9.58 13.85 9.74 13.41 10.06C12.97 10.36 12.69 10.79 12.57 11.35C12.45 11.91 12.55 12.54 12.87 13.24L20.13 29.26C20.45 29.96 20.84 30.47 21.3 30.79ZM44.1996 30.85C44.6196 31.13 45.1396 31.27 45.7596 31.27C46.5396 31.27 47.1196 31.09 47.4996 30.73C47.8796 30.37 48.2496 29.79 48.6096 28.99L49.5791 26.71H59.0102L59.9796 28.99C60.3196 29.79 60.6996 30.37 61.1196 30.73C61.5596 31.09 62.1796 31.27 62.9796 31.27C63.5796 31.27 64.0796 31.13 64.4796 30.85C64.8996 30.57 65.1496 30.17 65.2296 29.65C65.3296 29.13 65.2196 28.55 64.8996 27.91L57.4296 11.83C57.0496 11.05 56.5996 10.48 56.0796 10.12C55.5796 9.76 54.9896 9.58 54.3096 9.58C53.6296 9.58 53.0196 9.76 52.4796 10.12C51.9596 10.48 51.5196 11.05 51.1596 11.83L43.6896 27.91C43.4096 28.55 43.3196 29.13 43.4196 29.65C43.5196 30.15 43.7796 30.55 44.1996 30.85ZM51.3726 22.48L54.2496 15.61H54.3096L57.2114 22.48H51.3726ZM81.5145 30.76C82.6945 31.14 84.0545 31.33 85.5945 31.33C87.6345 31.33 89.3545 30.99 90.7545 30.31C92.1545 29.61 93.2045 28.57 93.9045 27.19C94.6245 25.79 94.9845 24.06 94.9845 22V12.37C94.9845 11.45 94.7545 10.76 94.2945 10.3C93.8344 9.82 93.1645 9.58 92.2845 9.58C91.4045 9.58 90.7245 9.82 90.2445 10.3C89.7845 10.76 89.5545 11.45 89.5545 12.37V22.06C89.5545 23.6 89.2145 24.76 88.5345 25.54C87.8545 26.32 86.8745 26.71 85.5945 26.71C84.2945 26.71 83.3045 26.32 82.6245 25.54C81.9445 24.76 81.6045 23.6 81.6045 22.06V12.37C81.6045 11.45 81.3645 10.76 80.8845 10.3C80.4245 9.82 79.7445 9.58 78.8445 9.58C77.9645 9.58 77.2845 9.82 76.8045 10.3C76.3245 10.76 76.0844 11.45 76.0844 12.37V22C76.0844 23.54 76.2845 24.9 76.6845 26.08C77.1045 27.24 77.7145 28.21 78.5145 28.99C79.3344 29.77 80.3344 30.36 81.5145 30.76ZM107.98 30.28C108.48 30.76 109.17 31 110.05 31H120.1C120.86 31 121.44 30.8 121.84 30.4C122.26 30 122.47 29.43 122.47 28.69C122.47 27.95 122.26 27.39 121.84 27.01C121.44 26.61 120.86 26.41 120.1 26.41H112.78V12.61C112.78 11.71 112.54 11.02 112.06 10.54C111.6 10.06 110.92 9.82 110.02 9.82C109.14 9.82 108.46 10.06 107.98 10.54C107.5 11.02 107.26 11.71 107.26 12.61V28.21C107.26 29.09 107.5 29.78 107.98 30.28ZM139.093 30.55C139.573 31.03 140.253 31.27 141.133 31.27C142.053 31.27 142.743 31.03 143.203 30.55C143.663 30.05 143.893 29.36 143.893 28.48V14.35H148.603C149.343 14.35 149.903 14.16 150.283 13.78C150.683 13.38 150.883 12.82 150.883 12.1C150.883 11.36 150.683 10.8 150.283 10.42C149.903 10.04 149.343 9.85 148.603 9.85H133.663C132.923 9.85 132.353 10.04 131.953 10.42C131.573 10.8 131.383 11.36 131.383 12.1C131.383 12.82 131.573 13.38 131.953 13.78C132.353 14.16 132.923 14.35 133.663 14.35H138.373V28.48C138.373 29.36 138.613 30.05 139.093 30.55Z" fill="#24242B"/>
</svg>
